<svg id="Layer_1" data-name="Layer 1" xmlns="http://www.w3.org/2000/svg" xmlns:xlink="http://www.w3.org/1999/xlink" viewBox="0 0 140 146"><defs><style>.cls-1{fill:#2a2d3d;}.cls-2{fill:#fff;}.cls-3{fill:#171923;}.cls-4{fill:#c5a063;}.cls-5{fill:#dbb879;}.cls-6{fill:url(#linear-gradient);}.cls-7{opacity:0.2;}</style><linearGradient id="linear-gradient" x1="20.86" y1="426.6" x2="37.06" y2="426.6" gradientTransform="matrix(1, 0, 0, -1, 0, 518.03)" gradientUnits="userSpaceOnUse"><stop offset="0" stop-color="#dcb45a"/><stop offset="0.15" stop-color="#cfa84f"/><stop offset="0.43" stop-color="#ad8733"/><stop offset="0.5" stop-color="#a37d2b"/><stop offset="0.58" stop-color="#ad8634"/><stop offset="0.84" stop-color="#c69f4a"/><stop offset="1" stop-color="#d0a853"/></linearGradient></defs><polygon class="cls-1" points="27.7 116.58 2.55 105.59 2.55 79.39 27.7 90.37 27.7 116.58"/><polygon class="cls-1" points="112.3 116.58 137.45 105.59 137.45 79.39 112.3 90.37 112.3 116.58"/><path class="cls-2" d="M70.1,140a3.91,3.91,0,0,1-1.45-.29L17.3,121.3a4.28,4.28,0,0,1-2.8-4V17.14a4.31,4.31,0,0,1,3.95-4.24L69.71,5.48h.77l51.16,7.42a4.23,4.23,0,0,1,4,4.24V117.35a4.27,4.27,0,0,1-2.79,4L71.54,139.7a3.89,3.89,0,0,1-1.44.29Z"/><path class="cls-3" d="M70.05,143.07a7.54,7.54,0,0,1-2.51-.38l-51.35-18.4a7.41,7.41,0,0,1-4.82-6.94V17.14a7.35,7.35,0,0,1,6.74-7.32L69.28,2.5a4.51,4.51,0,0,1,1.64,0L122,9.82a7.35,7.35,0,0,1,6.75,7.32V117.35a7.41,7.41,0,0,1-4.82,6.94l-51.26,18.4A8.07,8.07,0,0,1,70.05,143.07Zm0-134.5L18.69,16H18.6a1.09,1.09,0,0,0-1.06,1.15V117.35a1.13,1.13,0,0,0,.77,1.06l51.35,18.4a1,1,0,0,0,.77,0l51.26-18.4a1.13,1.13,0,0,0,.77-1.06V17.14A1.23,1.23,0,0,0,121.4,16h-.29Z"/><path class="cls-3" d="M70,133.82a.62.62,0,0,1-.39-.09L20.67,116.39a1.19,1.19,0,0,1-.68-1.06V19.17a1,1,0,0,1,1-1.06l48.94-7h.29l49,7a1.11,1.11,0,0,1,1,1.06v96.16a1.14,1.14,0,0,1-.77,1.06l-49,17.34A.37.37,0,0,1,70,133.82ZM70,12.13l-49,7v96.06L69.9,132.57,119,115.23V19.17Zm0,0Z"/><path class="cls-4" d="M70,146a10.28,10.28,0,0,1-3.3-.54L15.24,127.21a9.47,9.47,0,0,1-6.42-9V17a9.79,9.79,0,0,1,8.45-9.66L69.88,0H70l52.78,7.35A9.8,9.8,0,0,1,131.18,17V118.25a9.47,9.47,0,0,1-6.42,9L73.31,145.46A10.39,10.39,0,0,1,70,146ZM69.88,1,17.4,8.31A8.84,8.84,0,0,0,9.77,17V118.25a8.51,8.51,0,0,0,5.78,8.06L67,144.56a9.35,9.35,0,0,0,6,0l51.46-18.24a8.51,8.51,0,0,0,5.78-8.06V17a8.84,8.84,0,0,0-7.63-8.72Z"/><rect class="cls-3" x="2.55" y="77.17" width="134.89" height="28.52"/><path class="cls-2" d="M47.47,95.91a5.57,5.57,0,0,1-2.15-.41,4.82,4.82,0,0,1-1.7-1.18,5.61,5.61,0,0,1-1.13-1.9,7.38,7.38,0,0,1-.4-2.53,7,7,0,0,1,.68-3.22,5,5,0,0,1,1.9-2.07,5.29,5.29,0,0,1,2.8-.73,5.15,5.15,0,0,1,3.25.94,4.76,4.76,0,0,1,1.66,2.63l-1.7.29a3.59,3.59,0,0,0-1.14-1.66,3.16,3.16,0,0,0-2-.62,3.38,3.38,0,0,0-2,.55,3.29,3.29,0,0,0-1.23,1.55,6.38,6.38,0,0,0-.41,2.33,5.94,5.94,0,0,0,.4,2.32,3.26,3.26,0,0,0,1.23,1.54,3.59,3.59,0,0,0,2.05.57,3.36,3.36,0,0,0,1.7-.37,2.71,2.71,0,0,0,1.13-1.12A4.65,4.65,0,0,0,50.93,91H48.68V89.65h4c0,.1,0,.23,0,.38s0,.27,0,.31a6.5,6.5,0,0,1-.62,2.87,4.79,4.79,0,0,1-1.8,2A5.49,5.49,0,0,1,47.47,95.91Z"/><path class="cls-2" d="M57.8,95.91a4.25,4.25,0,0,1-2.26-.59,3.91,3.91,0,0,1-1.47-1.62,5.63,5.63,0,0,1,0-4.77,4,4,0,0,1,1.49-1.6,4.16,4.16,0,0,1,2.23-.58,4.23,4.23,0,0,1,2.26.59A4,4,0,0,1,61.53,89a5.66,5.66,0,0,1,0,4.76A3.92,3.92,0,0,1,60,95.33,4.09,4.09,0,0,1,57.8,95.91Zm0-1.58a2.14,2.14,0,0,0,1.86-.85,3.55,3.55,0,0,0,.62-2.16,3.45,3.45,0,0,0-.63-2.17,2.17,2.17,0,0,0-1.85-.82,2.42,2.42,0,0,0-1.39.38,2.34,2.34,0,0,0-.81,1.06,4.29,4.29,0,0,0-.27,1.55A3.52,3.52,0,0,0,56,93.51,2.19,2.19,0,0,0,57.8,94.33Z"/><path class="cls-2" d="M67.28,95.91A4.23,4.23,0,0,1,65,95.32a3.93,3.93,0,0,1-1.48-1.62A5.18,5.18,0,0,1,63,91.32a5.1,5.1,0,0,1,.53-2.39A4,4,0,0,1,65,87.33a4.16,4.16,0,0,1,2.23-.58,4.25,4.25,0,0,1,2.26.59A3.91,3.91,0,0,1,71,89a5.66,5.66,0,0,1,0,4.76,3.9,3.9,0,0,1-1.48,1.61A4.14,4.14,0,0,1,67.28,95.91Zm0-1.58a2.14,2.14,0,0,0,1.86-.85,3.61,3.61,0,0,0,.61-2.16,3.52,3.52,0,0,0-.62-2.17,2.18,2.18,0,0,0-1.85-.82,2.38,2.38,0,0,0-1.39.38,2.21,2.21,0,0,0-.81,1.06,4.29,4.29,0,0,0-.27,1.55,3.52,3.52,0,0,0,.63,2.19A2.17,2.17,0,0,0,67.28,94.33Z"/><path class="cls-2" d="M76.42,95.91a3.64,3.64,0,0,1-2.09-.6A3.92,3.92,0,0,1,73,93.67a5.57,5.57,0,0,1-.47-2.35A5.35,5.35,0,0,1,73,89a4,4,0,0,1,1.38-1.64,3.66,3.66,0,0,1,2.11-.6,3.44,3.44,0,0,1,2.06.6A3.67,3.67,0,0,1,79.8,89a6.48,6.48,0,0,1,0,4.67,3.72,3.72,0,0,1-1.27,1.64A3.42,3.42,0,0,1,76.42,95.91Zm.24-1.52A2.15,2.15,0,0,0,78,94a2.31,2.31,0,0,0,.77-1.09,5.39,5.39,0,0,0,0-3.18A2.33,2.33,0,0,0,78,88.65a2.06,2.06,0,0,0-1.29-.38,2.19,2.19,0,0,0-1.37.41,2.37,2.37,0,0,0-.8,1.1,4.75,4.75,0,0,0,0,3.1A2.38,2.38,0,0,0,75.34,94,2.12,2.12,0,0,0,76.66,94.39ZM79,95.66V89.42h-.19V84.09h1.69V95.66Z"/><path class="cls-2" d="M81.79,88.34V87H87.1v1.35Zm1.44,7.32v-9c0-.21,0-.45,0-.7a3.12,3.12,0,0,1,.14-.74,2,2,0,0,1,1.11-1.18,2,2,0,0,1,.78-.17l.72,0h1.1v1.38h-1a1.2,1.2,0,0,0-.89.3,1.09,1.09,0,0,0-.29.83v9.3H83.23Zm5.56-10.1V83.94h1.68v1.62Zm0,10.1V87h1.68v8.67Z"/><path class="cls-2" d="M92.56,95.66V87h1.49v2.1l-.2-.27a3,3,0,0,1,.41-.77,2.87,2.87,0,0,1,.59-.57,2.57,2.57,0,0,1,.74-.37,3.91,3.91,0,0,1,.84-.17,3.6,3.6,0,0,1,.81,0v1.57a2.41,2.41,0,0,0-.94-.06,2.08,2.08,0,0,0-1,.33,2,2,0,0,0-.64.64,2.6,2.6,0,0,0-.34.84,4.46,4.46,0,0,0-.11,1v4.37Z"/><path class="cls-2" d="M98.44,95.66V87h1.5V89.5h.19v6.16Zm5.2,0V90.29a2.11,2.11,0,0,0-.48-1.49,1.65,1.65,0,0,0-1.28-.54,1.68,1.68,0,0,0-1.29.55,2.1,2.1,0,0,0-.48,1.43l-.8-.51a2.86,2.86,0,0,1,1.52-2.57,3.18,3.18,0,0,1,1.58-.38,3,3,0,0,1,1.57.39,2.46,2.46,0,0,1,1,1.08,3.65,3.65,0,0,1,.34,1.63v5.79h-1.67Zm5.2,0V90.25a2.13,2.13,0,0,0-.48-1.47,1.69,1.69,0,0,0-1.27-.53,1.74,1.74,0,0,0-.88.22,1.7,1.7,0,0,0-.64.66,2.29,2.29,0,0,0-.24,1.1l-.81-.41a3,3,0,0,1,.39-1.61,2.83,2.83,0,0,1,1.1-1.07,3.28,3.28,0,0,1,1.57-.38,2.82,2.82,0,0,1,2.18.84,3.22,3.22,0,0,1,.77,2.24v5.81h-1.69Z"/><path class="cls-2" d="M115.61,95.9a4.47,4.47,0,0,1-2.58-.7,2.94,2.94,0,0,1-1.22-2l1.72-.27a1.67,1.67,0,0,0,.75,1.07,2.53,2.53,0,0,0,1.45.39A2,2,0,0,0,117,94.1a1.05,1.05,0,0,0,.44-.89.88.88,0,0,0-.15-.53,1.59,1.59,0,0,0-.66-.4c-.33-.12-.84-.27-1.52-.46a9.11,9.11,0,0,1-1.77-.62,2.38,2.38,0,0,1-.93-.78,2.06,2.06,0,0,1-.27-1.08,2.29,2.29,0,0,1,.41-1.37,2.67,2.67,0,0,1,1.18-.91,4.49,4.49,0,0,1,1.78-.33,4.75,4.75,0,0,1,1.78.32,3.22,3.22,0,0,1,1.26.88,2.65,2.65,0,0,1,.58,1.35l-1.72.31a1.43,1.43,0,0,0-.59-1,2.33,2.33,0,0,0-1.3-.39,2.17,2.17,0,0,0-1.23.25.89.89,0,0,0-.48.78.69.69,0,0,0,.18.49,1.88,1.88,0,0,0,.71.38c.34.12.86.27,1.54.45a8.15,8.15,0,0,1,1.74.62,2,2,0,0,1,1.2,1.95,2.38,2.38,0,0,1-.94,2A4,4,0,0,1,115.61,95.9Z"/><path class="cls-5" d="M20.86,86.52H37.05V83.73A1.72,1.72,0,0,0,35.32,82s-4.77.16-6.36.16S22.59,82,22.59,82a1.72,1.72,0,0,0-1.73,1.73Z"/><path class="cls-6" d="M23,97.76l2.87,2.1a5.22,5.22,0,0,0,6.16,0l2.87-2.1a5.22,5.22,0,0,0,2.15-4.22V83.66A1.65,1.65,0,0,0,35.33,82L34,82.15a45.33,45.33,0,0,1-10.15,0L22.59,82a1.66,1.66,0,0,0-1.73,1.66v9.88A5.23,5.23,0,0,0,23,97.76Z"/><g class="cls-7"><path d="M32.34,89.77l-1.51,1.46.36,2.07a.23.23,0,0,1-.23.28.27.27,0,0,1-.12,0l-1.86-1-1.86,1a.23.23,0,0,1-.25,0,.24.24,0,0,1-.1-.24l.36-2.07-1.51-1.46a.24.24,0,0,1,.13-.41l2.08-.31.93-1.88a.25.25,0,0,1,.43,0l.93,1.88,2.08.31a.24.24,0,0,1,.19.16A.25.25,0,0,1,32.34,89.77Z"/></g><path class="cls-2" d="M32.34,89.42l-1.51,1.47L31.19,93a.26.26,0,0,1-.09.24.27.27,0,0,1-.14,0l-.12,0-1.86-1-1.86,1a.25.25,0,0,1-.25,0,.23.23,0,0,1-.1-.24l.36-2.06-1.51-1.47a.24.24,0,0,1-.06-.24.27.27,0,0,1,.19-.17l2.08-.3.93-1.89a.25.25,0,0,1,.43,0l.93,1.89,2.08.3a.25.25,0,0,1,.19.17A.23.23,0,0,1,32.34,89.42Z"/><path class="cls-4" d="M74.51,122.35l-2,2L73,127.1a.3.3,0,0,1-.13.31.25.25,0,0,1-.18.06.26.26,0,0,1-.15,0l-2.5-1.3-2.51,1.3a.32.32,0,0,1-.47-.33l.48-2.78-2-2a.32.32,0,0,1,.18-.55l2.79-.41,1.25-2.53a.34.34,0,0,1,.58,0l1.25,2.53,2.79.41a.31.31,0,0,1,.25.22A.31.31,0,0,1,74.51,122.35Z"/><path class="cls-4" d="M61.08,119.8l-1.61,1.57.38,2.23a.27.27,0,0,1-.1.25.28.28,0,0,1-.15,0l-.12,0-2-1.05-2,1.05a.29.29,0,0,1-.27,0,.25.25,0,0,1-.1-.25l.38-2.23-1.61-1.57a.27.27,0,0,1-.07-.27.28.28,0,0,1,.21-.17l2.23-.33,1-2a.27.27,0,0,1,.47,0l1,2,2.24.33a.27.27,0,0,1,.2.17A.25.25,0,0,1,61.08,119.8Z"/><path class="cls-4" d="M86.14,119.8l-1.62,1.57.38,2.23a.25.25,0,0,1-.1.25.28.28,0,0,1-.15,0l-.12,0-2-1.05-2,1.05a.28.28,0,0,1-.27,0,.24.24,0,0,1-.11-.25l.39-2.23-1.62-1.57a.26.26,0,0,1-.06-.27.25.25,0,0,1,.2-.17l2.23-.33,1-2a.27.27,0,0,1,.47,0l1,2,2.23.33a.27.27,0,0,1,.2.17A.26.26,0,0,1,86.14,119.8Z"/><path class="cls-4" d="M96,117.7,94.67,119l.31,1.78a.23.23,0,0,1-.08.2.21.21,0,0,1-.12,0,.19.19,0,0,1-.1,0l-1.6-.83-1.6.83a.22.22,0,0,1-.22,0,.19.19,0,0,1-.08-.2l.3-1.78-1.29-1.26a.2.2,0,0,1,0-.21.19.19,0,0,1,.16-.14l1.79-.26.8-1.63a.22.22,0,0,1,.37,0l.8,1.63,1.78.26a.19.19,0,0,1,.17.14A.19.19,0,0,1,96,117.7Z"/><path class="cls-4" d="M49.81,117.7,48.52,119l.31,1.78a.24.24,0,0,1-.09.2.17.17,0,0,1-.12,0,.16.16,0,0,1-.09,0l-1.6-.83-1.61.83a.2.2,0,0,1-.21,0,.19.19,0,0,1-.08-.2l.3-1.78L44,117.7a.2.2,0,0,1,0-.21.19.19,0,0,1,.16-.14l1.79-.26.8-1.63a.22.22,0,0,1,.37,0l.8,1.63,1.78.26a.21.21,0,0,1,.12.35Z"/><path class="cls-3" d="M46.35,32H44.17V37.9H42.7V32H40.55V30.79h5.8Z"/><path class="cls-3" d="M45.85,35.21a3.16,3.16,0,0,1,.3-1.4,2.25,2.25,0,0,1,.88-1,2.5,2.5,0,0,1,1.32-.34,2.42,2.42,0,0,1,1.74.65A2.64,2.64,0,0,1,50.85,35v.36a2.77,2.77,0,0,1-.68,1.95,2.36,2.36,0,0,1-1.82.74,2.42,2.42,0,0,1-1.83-.73,2.85,2.85,0,0,1-.68-2Zm1.41.1a2,2,0,0,0,.29,1.15.92.92,0,0,0,.81.4.94.94,0,0,0,.8-.39,2.21,2.21,0,0,0,.29-1.26,2,2,0,0,0-.29-1.15.93.93,0,0,0-.81-.4.9.9,0,0,0-.8.4A2.2,2.2,0,0,0,47.26,35.31Z"/><path class="cls-3" d="M56.48,35.31a3.15,3.15,0,0,1-.55,1.95,1.79,1.79,0,0,1-1.5.74,1.65,1.65,0,0,1-1.29-.56v2.49H51.73V32.62H53l0,.51a1.67,1.67,0,0,1,1.34-.61,1.79,1.79,0,0,1,1.52.72,3.27,3.27,0,0,1,.54,2Zm-1.41-.11a2.08,2.08,0,0,0-.26-1.13.84.84,0,0,0-.76-.4.92.92,0,0,0-.91.5v2.17a.93.93,0,0,0,.92.52C54.73,36.86,55.07,36.31,55.07,35.2Z"/><path class="cls-3" d="M63.63,36a.74.74,0,0,0-.3-.63,3.52,3.52,0,0,0-1-.47,8.07,8.07,0,0,1-1.21-.49,2,2,0,0,1-1.21-1.76,1.71,1.71,0,0,1,.33-1,2.05,2.05,0,0,1,.93-.7,3.47,3.47,0,0,1,1.36-.26,3.12,3.12,0,0,1,1.36.28,2.1,2.1,0,0,1,.93.78,2,2,0,0,1,.33,1.14H63.63a.94.94,0,0,0-.31-.76,1.25,1.25,0,0,0-.86-.27,1.38,1.38,0,0,0-.84.23.73.73,0,0,0-.29.6.68.68,0,0,0,.35.58,4.21,4.21,0,0,0,1,.44,4.39,4.39,0,0,1,1.82.93A1.86,1.86,0,0,1,65.1,36a1.72,1.72,0,0,1-.7,1.45,3.06,3.06,0,0,1-1.88.53,3.65,3.65,0,0,1-1.5-.3,2.3,2.3,0,0,1-1-.83,2.06,2.06,0,0,1-.36-1.21h1.47c0,.79.47,1.18,1.41,1.18a1.35,1.35,0,0,0,.81-.21A.69.69,0,0,0,63.63,36Z"/><path class="cls-3" d="M65.77,35.21a3,3,0,0,1,.31-1.4,2.17,2.17,0,0,1,.87-1,2.5,2.5,0,0,1,1.32-.34,2.42,2.42,0,0,1,1.74.65A2.59,2.59,0,0,1,70.77,35v.36a2.77,2.77,0,0,1-.68,1.95,2.36,2.36,0,0,1-1.82.74,2.39,2.39,0,0,1-1.82-.73,2.81,2.81,0,0,1-.69-2Zm1.42.1a2,2,0,0,0,.28,1.15.93.93,0,0,0,.81.4.94.94,0,0,0,.8-.39,2.21,2.21,0,0,0,.29-1.26,2,2,0,0,0-.29-1.15.93.93,0,0,0-.81-.4.91.91,0,0,0-.8.4A2.2,2.2,0,0,0,67.19,35.31Z"/><path class="cls-3" d="M72,37.9V33.65h-.78v-1H72v-.45a1.83,1.83,0,0,1,.51-1.38A2,2,0,0,1,74,30.3a3,3,0,0,1,.72.1v1.09a1.81,1.81,0,0,0-.43,0c-.53,0-.8.25-.8.75v.43h1v1h-1V37.9Z"/><path class="cls-3" d="M76.92,31.32v1.3h.9v1h-.9v2.64a.68.68,0,0,0,.11.42.59.59,0,0,0,.43.13,2.5,2.5,0,0,0,.42,0v1.07A2.76,2.76,0,0,1,77,38a1.35,1.35,0,0,1-1.51-1.5V33.65h-.77v-1h.77v-1.3Z"/><path class="cls-3" d="M83.21,36l.69-3.36h1.36L83.91,37.9H82.73l-1-3.33-1,3.33H79.55l-1.34-5.28h1.36L80.26,36l1-3.36h1Z"/><path class="cls-3" d="M89,37.9a1.75,1.75,0,0,1-.14-.47,1.71,1.71,0,0,1-1.33.57,1.88,1.88,0,0,1-1.29-.45,1.45,1.45,0,0,1-.51-1.13,1.51,1.51,0,0,1,.62-1.29,3.14,3.14,0,0,1,1.8-.46h.65v-.3a.87.87,0,0,0-.19-.59.75.75,0,0,0-.59-.22.87.87,0,0,0-.56.17.6.6,0,0,0-.2.47H85.87a1.42,1.42,0,0,1,.28-.85,1.92,1.92,0,0,1,.8-.61,2.89,2.89,0,0,1,1.16-.22,2.29,2.29,0,0,1,1.55.49,1.71,1.71,0,0,1,.58,1.38v2.29a2.46,2.46,0,0,0,.21,1.14v.08Zm-1.17-1a1.27,1.27,0,0,0,.58-.14.88.88,0,0,0,.39-.37V35.5h-.53c-.7,0-1.08.24-1.12.73v.08a.56.56,0,0,0,.19.44A.72.72,0,0,0,87.85,36.92Z"/><path class="cls-3" d="M94.29,33.94a3.25,3.25,0,0,0-.51,0,1,1,0,0,0-1,.54V37.9H91.32V32.62h1.33l0,.63a1.31,1.31,0,0,1,1.18-.73,1.56,1.56,0,0,1,.44.06Z"/><path class="cls-3" d="M97.31,38a2.56,2.56,0,0,1-1.89-.72,2.49,2.49,0,0,1-.73-1.89v-.14a3.22,3.22,0,0,1,.3-1.42,2.29,2.29,0,0,1,.87-1,2.44,2.44,0,0,1,1.29-.34,2.23,2.23,0,0,1,1.71.68,2.81,2.81,0,0,1,.62,1.94v.58H96.12a1.3,1.3,0,0,0,.41.83,1.24,1.24,0,0,0,.87.31,1.52,1.52,0,0,0,1.27-.59l.7.78a2.22,2.22,0,0,1-.86.7A2.93,2.93,0,0,1,97.31,38Zm-.16-4.34a.9.9,0,0,0-.69.28,1.51,1.51,0,0,0-.33.82h2v-.12a1.06,1.06,0,0,0-.25-.73A.9.9,0,0,0,97.15,33.66Z"/><path class="cls-3" d="M41.08,50.9V43.79h2.19a3.31,3.31,0,0,1,1.67.42,3,3,0,0,1,1.16,1.2,3.79,3.79,0,0,1,.41,1.77v.33a3.71,3.71,0,0,1-.4,1.76A2.92,2.92,0,0,1,45,50.47a3.32,3.32,0,0,1-1.67.43ZM42.54,45v4.74h.71a1.57,1.57,0,0,0,1.31-.56,2.5,2.5,0,0,0,.47-1.6v-.38a2.56,2.56,0,0,0-.45-1.64A1.57,1.57,0,0,0,43.27,45Z"/><path class="cls-3" d="M49.92,51a2.59,2.59,0,0,1-1.9-.72,2.53,2.53,0,0,1-.73-1.89v-.14a3.22,3.22,0,0,1,.31-1.42,2.29,2.29,0,0,1,.87-1,2.44,2.44,0,0,1,1.29-.34,2.23,2.23,0,0,1,1.71.68,2.81,2.81,0,0,1,.62,1.94v.58H48.72a1.36,1.36,0,0,0,.42.83,1.24,1.24,0,0,0,.87.31,1.52,1.52,0,0,0,1.27-.59l.7.78a2.29,2.29,0,0,1-.86.7A2.93,2.93,0,0,1,49.92,51Zm-.17-4.34a.88.88,0,0,0-.68.28,1.51,1.51,0,0,0-.33.82h2v-.12a1.11,1.11,0,0,0-.25-.73A.94.94,0,0,0,49.75,46.66Z"/><path class="cls-3" d="M54.8,49.18l1-3.56h1.48L55.48,50.9H54.13l-1.78-5.28h1.47Z"/><path class="cls-3" d="M60.25,51a2.56,2.56,0,0,1-1.89-.72,2.49,2.49,0,0,1-.73-1.89v-.14a3.22,3.22,0,0,1,.3-1.42,2.24,2.24,0,0,1,.88-1,2.38,2.38,0,0,1,1.28-.34,2.23,2.23,0,0,1,1.71.68,2.81,2.81,0,0,1,.62,1.94v.58H59.06a1.3,1.3,0,0,0,.41.83,1.24,1.24,0,0,0,.87.31,1.52,1.52,0,0,0,1.27-.59l.7.78a2.22,2.22,0,0,1-.86.7A2.93,2.93,0,0,1,60.25,51Zm-.16-4.34a.9.9,0,0,0-.69.28,1.51,1.51,0,0,0-.33.82h2v-.12a1.06,1.06,0,0,0-.25-.73A.9.9,0,0,0,60.09,46.66Z"/><path class="cls-3" d="M64.71,50.9H63.29V43.4h1.42Z"/><path class="cls-3" d="M65.65,48.21a3,3,0,0,1,.31-1.4,2.17,2.17,0,0,1,.87-1,2.5,2.5,0,0,1,1.32-.34,2.42,2.42,0,0,1,1.74.65A2.64,2.64,0,0,1,70.65,48v.36A2.77,2.77,0,0,1,70,50.26a2.36,2.36,0,0,1-1.82.74,2.42,2.42,0,0,1-1.83-.73,2.85,2.85,0,0,1-.68-2Zm1.41.1a2,2,0,0,0,.29,1.15.93.93,0,0,0,.81.4.94.94,0,0,0,.8-.39,2.21,2.21,0,0,0,.29-1.26A2,2,0,0,0,69,47.06a.93.93,0,0,0-.81-.4.91.91,0,0,0-.8.4A2.2,2.2,0,0,0,67.06,48.31Z"/><path class="cls-3" d="M76.28,48.31a3.15,3.15,0,0,1-.55,1.95,1.79,1.79,0,0,1-1.5.74,1.65,1.65,0,0,1-1.29-.56v2.49H71.53V45.62h1.31l0,.51a1.67,1.67,0,0,1,1.34-.61,1.79,1.79,0,0,1,1.52.72,3.27,3.27,0,0,1,.54,2Zm-1.41-.11a2.08,2.08,0,0,0-.26-1.13.84.84,0,0,0-.76-.4.92.92,0,0,0-.91.5v2.17a.93.93,0,0,0,.92.52C74.53,49.86,74.87,49.31,74.87,48.2Z"/><path class="cls-3" d="M78.48,45.62l0,.59A1.86,1.86,0,0,1,80,45.52a1.41,1.41,0,0,1,1.4.8,1.84,1.84,0,0,1,1.59-.8,1.59,1.59,0,0,1,1.28.5,2.31,2.31,0,0,1,.42,1.51V50.9H83.31V47.53a1,1,0,0,0-.17-.66.82.82,0,0,0-.62-.2.88.88,0,0,0-.88.6V50.9H80.23V47.54a1,1,0,0,0-.18-.67.76.76,0,0,0-.61-.2.91.91,0,0,0-.87.49V50.9H77.16V45.62Z"/><path class="cls-3" d="M88.25,51a2.59,2.59,0,0,1-1.9-.72,2.53,2.53,0,0,1-.73-1.89v-.14a3.22,3.22,0,0,1,.31-1.42,2.29,2.29,0,0,1,.87-1,2.44,2.44,0,0,1,1.29-.34,2.23,2.23,0,0,1,1.71.68,2.81,2.81,0,0,1,.62,1.94v.58H87.05a1.36,1.36,0,0,0,.42.83,1.24,1.24,0,0,0,.87.31,1.52,1.52,0,0,0,1.27-.59l.7.78a2.29,2.29,0,0,1-.86.7A2.93,2.93,0,0,1,88.25,51Zm-.17-4.34a.88.88,0,0,0-.68.28,1.51,1.51,0,0,0-.33.82h2v-.12a1.06,1.06,0,0,0-.25-.73A.94.94,0,0,0,88.08,46.66Z"/><path class="cls-3" d="M92.52,45.62l0,.61a1.84,1.84,0,0,1,1.52-.71,1.52,1.52,0,0,1,1.25.49,2.35,2.35,0,0,1,.42,1.48V50.9H94.34V47.52a.9.9,0,0,0-.2-.65.84.84,0,0,0-.65-.2,1,1,0,0,0-.89.5V50.9H91.19V45.62Z"/><path class="cls-3" d="M98.51,44.32v1.3h.9v1h-.9v2.64a.68.68,0,0,0,.11.42.59.59,0,0,0,.43.13,2.5,2.5,0,0,0,.42,0v1.07a2.8,2.8,0,0,1-.86.13,1.35,1.35,0,0,1-1.51-1.5V46.65h-.77v-1h.77v-1.3Z"/><path class="cls-3" d="M55,61.53a2.52,2.52,0,0,1-.84,1.81,3,3,0,0,1-2,.66A2.68,2.68,0,0,1,50,63.08a3.81,3.81,0,0,1-.78-2.53v-.43a4.27,4.27,0,0,1,.36-1.81,2.7,2.7,0,0,1,1-1.2,3.21,3.21,0,0,1,3.54.24A2.73,2.73,0,0,1,55,59.2H53.58a1.51,1.51,0,0,0-.39-1,1.44,1.44,0,0,0-1-.31,1.26,1.26,0,0,0-1.1.53,3,3,0,0,0-.37,1.63v.53a3.2,3.2,0,0,0,.35,1.69,1.23,1.23,0,0,0,1.1.53,1.22,1.22,0,0,0,1.4-1.27Z"/><path class="cls-3" d="M55.68,61.21a3.16,3.16,0,0,1,.3-1.4,2.25,2.25,0,0,1,.88-1,2.47,2.47,0,0,1,1.32-.34,2.42,2.42,0,0,1,1.74.65A2.68,2.68,0,0,1,60.68,61v.36A2.77,2.77,0,0,1,60,63.26a2.36,2.36,0,0,1-1.82.74,2.41,2.41,0,0,1-1.83-.73,2.85,2.85,0,0,1-.68-2Zm1.41.1a2,2,0,0,0,.29,1.15.9.9,0,0,0,.81.4,1,1,0,0,0,.8-.39,2.21,2.21,0,0,0,.29-1.26A2,2,0,0,0,59,60.06a.94.94,0,0,0-.81-.4.9.9,0,0,0-.8.4A2.2,2.2,0,0,0,57.09,61.31Z"/><path class="cls-3" d="M62.88,58.62l0,.59a1.86,1.86,0,0,1,1.52-.69,1.41,1.41,0,0,1,1.4.8,1.83,1.83,0,0,1,1.59-.8,1.59,1.59,0,0,1,1.28.5,2.31,2.31,0,0,1,.42,1.51V63.9H67.71V60.53a1.07,1.07,0,0,0-.17-.66.82.82,0,0,0-.62-.2.87.87,0,0,0-.88.6V63.9H64.63V60.54a1,1,0,0,0-.18-.67.76.76,0,0,0-.61-.2.91.91,0,0,0-.87.49V63.9H61.56V58.62Z"/><path class="cls-3" d="M75,61.31a3.16,3.16,0,0,1-.56,1.95,1.77,1.77,0,0,1-1.49.74,1.66,1.66,0,0,1-1.3-.56v2.49H70.21V58.62h1.31l0,.51a1.66,1.66,0,0,1,1.34-.61,1.79,1.79,0,0,1,1.52.72,3.27,3.27,0,0,1,.54,2Zm-1.41-.11a2.08,2.08,0,0,0-.26-1.13.85.85,0,0,0-.76-.4.94.94,0,0,0-.92.5v2.17a1,1,0,0,0,.93.52C73.22,62.86,73.56,62.31,73.56,61.2Z"/><path class="cls-3" d="M78.9,63.9a1.75,1.75,0,0,1-.14-.47,1.7,1.7,0,0,1-1.33.57,1.88,1.88,0,0,1-1.29-.45,1.45,1.45,0,0,1-.51-1.13,1.49,1.49,0,0,1,.63-1.29,3.08,3.08,0,0,1,1.79-.46h.65v-.3a.92.92,0,0,0-.18-.59.78.78,0,0,0-.6-.22.89.89,0,0,0-.56.17.6.6,0,0,0-.2.47H75.75a1.42,1.42,0,0,1,.28-.85,1.92,1.92,0,0,1,.8-.61A2.94,2.94,0,0,1,78,58.52a2.31,2.31,0,0,1,1.55.49,1.73,1.73,0,0,1,.57,1.38v2.29a2.46,2.46,0,0,0,.21,1.14v.08Zm-1.16-1a1.23,1.23,0,0,0,.57-.14.88.88,0,0,0,.39-.37V61.5h-.52c-.71,0-1.09.24-1.13.73v.08a.6.6,0,0,0,.19.44A.73.73,0,0,0,77.74,62.92Z"/><path class="cls-3" d="M82.5,58.62l0,.61a1.81,1.81,0,0,1,1.52-.71,1.55,1.55,0,0,1,1.25.49,2.29,2.29,0,0,1,.41,1.48V63.9H84.32V60.52a.9.9,0,0,0-.19-.65.86.86,0,0,0-.65-.2,1,1,0,0,0-.89.5V63.9H81.17V58.62Z"/><path class="cls-3" d="M88.78,61.9l1-3.28h1.52l-2.13,6.1L89,65a1.62,1.62,0,0,1-1.57,1,2.27,2.27,0,0,1-.62-.09V64.87h.21a1.07,1.07,0,0,0,.6-.13.76.76,0,0,0,.31-.4l.17-.44-1.85-5.29H87.8Z"/></svg>